<svg xmlns="http://www.w3.org/2000/svg" width="36" height="26" viewBox="0 0 36 26">
  <path id="icon_camera" d="M36,18.91,35.9,5.762ZM35.9,5.757a2.249,2.249,0,0,0-1.955-1.53H25.621l-.574-2.839A1.741,1.741,0,0,0,23.34,0H12.66a1.737,1.737,0,0,0-1.707,1.389l-.574,2.839H2.043A2.205,2.205,0,0,0,0,6.4V23.82A2.213,2.213,0,0,0,2.242,26h31.5A2.215,2.215,0,0,0,36,23.82V18.91ZM18,7.2a8.358,8.358,0,0,1,3.132.6,8.533,8.533,0,0,1,2.656,1.718v.009a7.775,7.775,0,0,1,1.77,2.57,7.671,7.671,0,0,1,0,6.054,7.985,7.985,0,0,1-1.77,2.561v.009A8.34,8.34,0,0,1,18,23.039a8.327,8.327,0,0,1-3.122-.6,8.6,8.6,0,0,1-2.655-1.714v-.009a7.768,7.768,0,0,1-2.393-5.593,7.6,7.6,0,0,1,.623-3.022,7.775,7.775,0,0,1,1.77-2.57V9.519A8.533,8.533,0,0,1,14.873,7.8,8.308,8.308,0,0,1,18,7.2ZM5.014,6A1.489,1.489,0,1,1,3.473,7.485,1.514,1.514,0,0,1,5.014,6ZM21.9,11.341a5.213,5.213,0,0,0-1.78-1.158,5.644,5.644,0,0,0-4.222,0,5.347,5.347,0,0,0-1.79,1.158,5.41,5.41,0,0,0-1.2,1.723,5.214,5.214,0,0,0-.413,2.048,5.13,5.13,0,0,0,.413,2.048,5.41,5.41,0,0,0,1.2,1.723,5.574,5.574,0,0,0,1.79,1.168,5.845,5.845,0,0,0,2.106.4,5.721,5.721,0,0,0,2.116-.4,5.609,5.609,0,0,0,2.986-2.89,5.279,5.279,0,0,0,0-4.1A5.391,5.391,0,0,0,21.9,11.341Z" fill="#fff" fill-rule="evenodd"/>
</svg>
