<svg width="283" height="283" viewBox="0 0 283 283" fill="none" xmlns="http://www.w3.org/2000/svg">
<path d="M189.429 189.429C215.899 162.958 215.899 120.042 189.429 93.5715C162.959 67.1013 120.042 67.1013 93.5718 93.5715C67.1016 120.042 67.1016 162.958 93.5718 189.429C120.042 215.899 162.959 215.899 189.429 189.429Z" fill="#D0D1D3"/>
<path d="M186.181 186.181C210.858 161.504 210.858 121.496 186.181 96.8189C161.504 72.1422 121.496 72.1422 96.8189 96.8189C72.1422 121.496 72.1423 161.504 96.8189 186.181C121.496 210.858 161.504 210.858 186.181 186.181Z" fill="#F1F1F2"/>
<path d="M184.792 95.4751C193.586 108.335 197.319 123.991 195.273 139.435C193.226 154.879 185.546 169.023 173.706 179.149C161.867 189.275 146.703 194.67 131.128 194.296C115.554 193.923 100.666 187.808 89.3254 177.126C94.3301 184.453 100.822 190.644 108.378 195.295C115.935 199.947 124.386 202.954 133.182 204.122C141.978 205.29 150.922 204.592 159.43 202.073C167.938 199.555 175.821 195.273 182.564 189.505C189.307 183.738 194.76 176.615 198.567 168.6C202.374 160.585 204.451 151.858 204.661 142.988C204.871 134.117 203.211 125.301 199.787 117.115C196.364 108.929 191.255 101.555 184.792 95.4751Z" fill="#E6E6E7"/>
<path d="M153.97 42.2436C197.528 51.7956 230.169 90.6112 230.169 137.057C230.169 190.678 186.699 234.148 133.078 234.148C108.35 234.176 84.5506 224.732 66.5692 207.757C75.9436 218.39 87.4758 226.904 100.398 232.731C113.32 238.558 127.335 241.566 141.511 241.552C196.771 241.552 241.566 196.757 241.566 141.501C241.555 90.4622 203.331 48.3836 153.97 42.2436Z" fill="#E6E6E7"/>
</svg>
